<mxfile host="app.diagrams.net" modified="2023-10-09T11:37:05.927Z" agent="Mozilla/5.0 (Windows NT 10.0; Win64; x64) AppleWebKit/537.36 (KHTML, like Gecko) Chrome/117.0.0.0 Safari/537.36" etag="Xgs870DR1H7aZQysXK99" version="22.0.4" type="github">
  <diagram name="Page-1" id="ykxJk71dv9v_vAQylzTN">
    <mxGraphModel dx="1034" dy="734" grid="1" gridSize="10" guides="1" tooltips="1" connect="1" arrows="1" fold="1" page="1" pageScale="1" pageWidth="827" pageHeight="1169" math="0" shadow="0">
      <root>
        <mxCell id="0" />
        <mxCell id="1" parent="0" />
        <mxCell id="f27edlvPX0rT_J85qjWV-16" value="Матчи" style="shape=umlLifeline;perimeter=lifelinePerimeter;whiteSpace=wrap;html=1;container=1;collapsible=0;recursiveResize=0;outlineConnect=0;rounded=1;shadow=0;comic=0;labelBackgroundColor=none;strokeWidth=1;fontFamily=Verdana;fontSize=12;align=center;" parent="1" vertex="1">
          <mxGeometry x="1001" y="109" width="106" height="1970" as="geometry" />
        </mxCell>
        <mxCell id="f27edlvPX0rT_J85qjWV-17" value="Протокол матча" style="html=1;points=[];perimeter=orthogonalPerimeter;rounded=0;shadow=0;comic=0;labelBackgroundColor=none;strokeWidth=1;fontFamily=Verdana;fontSize=12;align=center;rotation=-90;" parent="f27edlvPX0rT_J85qjWV-16" vertex="1">
          <mxGeometry x="-77.05" y="2741.35" width="258.52" height="20" as="geometry" />
        </mxCell>
        <mxCell id="f27edlvPX0rT_J85qjWV-21" value="&lt;div style=&quot;direction: ltr;&quot;&gt;&lt;span style=&quot;background-color: initial;&quot;&gt;События&lt;/span&gt;&lt;/div&gt;" style="html=1;points=[];perimeter=orthogonalPerimeter;rounded=0;shadow=0;comic=0;labelBackgroundColor=none;strokeWidth=1;fontFamily=Verdana;fontSize=12;align=center;direction=west;rotation=-90;" parent="f27edlvPX0rT_J85qjWV-16" vertex="1">
          <mxGeometry x="10.000000000000004" y="2832" width="58.41" height="22.5" as="geometry" />
        </mxCell>
        <mxCell id="f27edlvPX0rT_J85qjWV-23" value="Справочники" style="shape=umlLifeline;perimeter=lifelinePerimeter;whiteSpace=wrap;html=1;container=1;collapsible=0;recursiveResize=0;outlineConnect=0;rounded=1;shadow=0;comic=0;labelBackgroundColor=none;strokeWidth=1;fontFamily=Verdana;fontSize=12;align=center;" parent="1" vertex="1">
          <mxGeometry x="1296" y="110" width="566.54" height="774.75" as="geometry" />
        </mxCell>
        <mxCell id="f27edlvPX0rT_J85qjWV-24" value="Роль" style="html=1;points=[];perimeter=orthogonalPerimeter;rounded=0;shadow=0;comic=0;labelBackgroundColor=none;strokeWidth=1;fontFamily=Verdana;fontSize=12;align=center;rotation=-90;" parent="f27edlvPX0rT_J85qjWV-23" vertex="1">
          <mxGeometry x="33.5" y="204" width="35" height="20" as="geometry" />
        </mxCell>
        <mxCell id="f27edlvPX0rT_J85qjWV-25" value="Тип документа" style="html=1;points=[];perimeter=orthogonalPerimeter;rounded=0;shadow=0;comic=0;labelBackgroundColor=none;strokeWidth=1;fontFamily=Verdana;fontSize=12;align=center;rotation=-90;" parent="f27edlvPX0rT_J85qjWV-23" vertex="1">
          <mxGeometry x="-460.75" y="754.75" width="1027.29" height="20" as="geometry" />
        </mxCell>
        <mxCell id="f27edlvPX0rT_J85qjWV-26" value="Персонал" style="shape=umlLifeline;perimeter=lifelinePerimeter;whiteSpace=wrap;html=1;container=1;collapsible=0;recursiveResize=0;outlineConnect=0;rounded=1;shadow=0;comic=0;labelBackgroundColor=none;strokeWidth=1;fontFamily=Verdana;fontSize=12;align=center;" parent="1" vertex="1">
          <mxGeometry x="209" y="110" width="101" height="2849" as="geometry" />
        </mxCell>
        <mxCell id="f27edlvPX0rT_J85qjWV-27" value="&lt;div style=&quot;direction: ltr;&quot;&gt;&lt;span style=&quot;background-color: initial;&quot;&gt;Список персон&lt;/span&gt;&lt;/div&gt;" style="html=1;points=[];perimeter=orthogonalPerimeter;rounded=0;shadow=0;comic=0;labelBackgroundColor=none;strokeWidth=1;fontFamily=Verdana;fontSize=12;align=center;direction=west;rotation=-90;" parent="f27edlvPX0rT_J85qjWV-26" vertex="1">
          <mxGeometry x="-36.690000000000005" y="230.99999999999997" width="174.38" height="25" as="geometry" />
        </mxCell>
        <mxCell id="f27edlvPX0rT_J85qjWV-28" value="&lt;div style=&quot;direction: ltr;&quot;&gt;&lt;span style=&quot;background-color: initial;&quot;&gt;Карточка персоны&lt;/span&gt;&lt;/div&gt;" style="html=1;points=[];perimeter=orthogonalPerimeter;rounded=0;shadow=0;comic=0;labelBackgroundColor=none;strokeWidth=1;fontFamily=Verdana;fontSize=12;align=center;direction=west;rotation=-90;" parent="f27edlvPX0rT_J85qjWV-26" vertex="1">
          <mxGeometry x="1.4" y="238.73" width="136.27" height="21.18" as="geometry" />
        </mxCell>
        <mxCell id="f27edlvPX0rT_J85qjWV-29" value="&lt;div style=&quot;direction: ltr;&quot;&gt;&lt;span style=&quot;background-color: initial;&quot;&gt;Документы&lt;/span&gt;&lt;/div&gt;" style="html=1;points=[];perimeter=orthogonalPerimeter;rounded=0;shadow=0;comic=0;labelBackgroundColor=none;strokeWidth=1;fontFamily=Verdana;fontSize=12;align=center;direction=west;rotation=-90;" parent="f27edlvPX0rT_J85qjWV-26" vertex="1">
          <mxGeometry x="50.1" y="259.6" width="80.2" height="22.5" as="geometry" />
        </mxCell>
        <mxCell id="f27edlvPX0rT_J85qjWV-30" value="" style="html=1;verticalAlign=bottom;endArrow=block;labelBackgroundColor=none;fontFamily=Verdana;fontSize=12;elbow=vertical;edgeStyle=orthogonalEdgeStyle;curved=1;exitX=0.01;exitY=0.44;exitDx=0;exitDy=0;exitPerimeter=0;" parent="f27edlvPX0rT_J85qjWV-26" edge="1" source="f27edlvPX0rT_J85qjWV-27">
          <mxGeometry relative="1" as="geometry">
            <mxPoint x="62.81999999999999" y="157" as="sourcePoint" />
            <mxPoint x="81.19999999999999" y="195" as="targetPoint" />
            <Array as="points">
              <mxPoint x="52" y="157" />
              <mxPoint x="103" y="157" />
              <mxPoint x="103" y="195" />
            </Array>
          </mxGeometry>
        </mxCell>
        <mxCell id="f27edlvPX0rT_J85qjWV-31" value="" style="html=1;verticalAlign=bottom;endArrow=block;labelBackgroundColor=none;fontFamily=Verdana;fontSize=12;elbow=vertical;edgeStyle=orthogonalEdgeStyle;curved=1;" parent="f27edlvPX0rT_J85qjWV-26" edge="1">
          <mxGeometry relative="1" as="geometry">
            <mxPoint x="81.19999999999999" y="224" as="sourcePoint" />
            <mxPoint x="99.19999999999999" y="262" as="targetPoint" />
            <Array as="points">
              <mxPoint x="121.19999999999999" y="224" />
              <mxPoint x="121.19999999999999" y="262" />
            </Array>
          </mxGeometry>
        </mxCell>
        <mxCell id="f27edlvPX0rT_J85qjWV-34" value="Тренер" style="html=1;points=[];perimeter=orthogonalPerimeter;rounded=0;shadow=0;comic=0;labelBackgroundColor=none;strokeWidth=1;fontFamily=Verdana;fontSize=12;align=center;rotation=-90;" parent="f27edlvPX0rT_J85qjWV-26" vertex="1">
          <mxGeometry x="-50.99" y="1955.41" width="201.18" height="27.73" as="geometry" />
        </mxCell>
        <mxCell id="f27edlvPX0rT_J85qjWV-37" value="Тренер" style="html=1;points=[];perimeter=orthogonalPerimeter;rounded=0;shadow=0;comic=0;labelBackgroundColor=none;strokeWidth=1;fontFamily=Verdana;fontSize=12;align=center;rotation=-90;" parent="f27edlvPX0rT_J85qjWV-26" vertex="1">
          <mxGeometry x="11.12" y="2728.12" width="77.77" height="27.73" as="geometry" />
        </mxCell>
        <mxCell id="f27edlvPX0rT_J85qjWV-38" value="&lt;div style=&quot;direction: ltr;&quot;&gt;&lt;span style=&quot;background-color: initial;&quot;&gt;Матч&lt;/span&gt;&lt;/div&gt;" style="html=1;points=[];perimeter=orthogonalPerimeter;rounded=0;shadow=0;comic=0;labelBackgroundColor=none;strokeWidth=1;fontFamily=Verdana;fontSize=12;align=center;direction=west;rotation=-90;" parent="f27edlvPX0rT_J85qjWV-26" vertex="1">
          <mxGeometry x="45.209999999999994" y="2737" width="49.55" height="22.5" as="geometry" />
        </mxCell>
        <mxCell id="f27edlvPX0rT_J85qjWV-99" value="" style="endArrow=classic;html=1;rounded=0;" parent="f27edlvPX0rT_J85qjWV-26" edge="1">
          <mxGeometry width="50" height="50" relative="1" as="geometry">
            <mxPoint x="-140.5" y="1140" as="sourcePoint" />
            <mxPoint x="172" y="1140" as="targetPoint" />
          </mxGeometry>
        </mxCell>
        <mxCell id="f27edlvPX0rT_J85qjWV-100" value="Добавление,&lt;br&gt;&amp;nbsp;удаление, &lt;br&gt;обновление" style="edgeLabel;html=1;align=center;verticalAlign=middle;resizable=0;points=[];" parent="f27edlvPX0rT_J85qjWV-99" vertex="1" connectable="0">
          <mxGeometry x="-0.4975" y="1" relative="1" as="geometry">
            <mxPoint x="10" y="1" as="offset" />
          </mxGeometry>
        </mxCell>
        <mxCell id="tbXqZCxcv9YD3rP0Q4Ke-23" value="Тренер" style="html=1;points=[];perimeter=orthogonalPerimeter;rounded=0;shadow=0;comic=0;labelBackgroundColor=none;strokeWidth=1;fontFamily=Verdana;fontSize=12;align=center;rotation=-90;" parent="f27edlvPX0rT_J85qjWV-26" vertex="1">
          <mxGeometry x="-33.3" y="779.3499999999999" width="168.61" height="27.73" as="geometry" />
        </mxCell>
        <mxCell id="tbXqZCxcv9YD3rP0Q4Ke-30" value="&lt;div style=&quot;direction: ltr;&quot;&gt;&lt;span style=&quot;background-color: initial;&quot;&gt;Команда&lt;/span&gt;&lt;/div&gt;" style="html=1;points=[];perimeter=orthogonalPerimeter;rounded=0;shadow=0;comic=0;labelBackgroundColor=none;strokeWidth=1;fontFamily=Verdana;fontSize=12;align=center;direction=west;rotation=-90;" parent="f27edlvPX0rT_J85qjWV-26" vertex="1">
          <mxGeometry x="29.880000000000024" y="2010" width="80.2" height="22.5" as="geometry" />
        </mxCell>
        <mxCell id="tbXqZCxcv9YD3rP0Q4Ke-44" value="&lt;div style=&quot;direction: ltr;&quot;&gt;&lt;span style=&quot;background-color: initial;&quot;&gt;Спортсмен&lt;/span&gt;&lt;/div&gt;" style="html=1;points=[];perimeter=orthogonalPerimeter;rounded=0;shadow=0;comic=0;labelBackgroundColor=none;strokeWidth=1;fontFamily=Verdana;fontSize=12;align=center;direction=west;rotation=-90;" parent="f27edlvPX0rT_J85qjWV-26" vertex="1">
          <mxGeometry x="21.98" y="784.5799999999999" width="96.41" height="22.5" as="geometry" />
        </mxCell>
        <mxCell id="f27edlvPX0rT_J85qjWV-39" value="" style="endArrow=classic;html=1;rounded=0;entryX=0.557;entryY=0.05;entryDx=0;entryDy=0;entryPerimeter=0;exitX=0.209;exitY=-0.025;exitDx=0;exitDy=0;exitPerimeter=0;" parent="1" target="f27edlvPX0rT_J85qjWV-24" edge="1" source="f27edlvPX0rT_J85qjWV-28">
          <mxGeometry width="50" height="50" relative="1" as="geometry">
            <mxPoint x="292" y="522" as="sourcePoint" />
            <mxPoint x="952" y="522" as="targetPoint" />
            <Array as="points" />
          </mxGeometry>
        </mxCell>
        <mxCell id="f27edlvPX0rT_J85qjWV-40" value="Выбор роли персоны" style="edgeLabel;html=1;align=center;verticalAlign=middle;resizable=0;points=[];" parent="f27edlvPX0rT_J85qjWV-39" vertex="1" connectable="0">
          <mxGeometry x="-0.215" relative="1" as="geometry">
            <mxPoint as="offset" />
          </mxGeometry>
        </mxCell>
        <mxCell id="f27edlvPX0rT_J85qjWV-41" value="" style="endArrow=classic;html=1;rounded=0;entryX=0.004;entryY=0.64;entryDx=0;entryDy=0;entryPerimeter=0;" parent="1" target="f27edlvPX0rT_J85qjWV-27" edge="1">
          <mxGeometry width="50" height="50" relative="1" as="geometry">
            <mxPoint x="69.5" y="267.9362799999999" as="sourcePoint" />
            <mxPoint x="250" y="268" as="targetPoint" />
          </mxGeometry>
        </mxCell>
        <mxCell id="f27edlvPX0rT_J85qjWV-42" value="Добавление,&lt;br&gt;удаление,&lt;br&gt;обновление" style="edgeLabel;html=1;align=center;verticalAlign=middle;resizable=0;points=[];" parent="f27edlvPX0rT_J85qjWV-41" vertex="1" connectable="0">
          <mxGeometry x="-0.5719" y="1" relative="1" as="geometry">
            <mxPoint x="53" y="-4" as="offset" />
          </mxGeometry>
        </mxCell>
        <mxCell id="f27edlvPX0rT_J85qjWV-43" value="Переходы" style="shape=umlLifeline;perimeter=lifelinePerimeter;whiteSpace=wrap;html=1;container=1;collapsible=0;recursiveResize=0;outlineConnect=0;rounded=1;shadow=0;comic=0;labelBackgroundColor=none;strokeWidth=1;fontFamily=Verdana;fontSize=12;align=center;" parent="1" vertex="1">
          <mxGeometry x="487" y="109" width="93" height="780" as="geometry" />
        </mxCell>
        <mxCell id="f27edlvPX0rT_J85qjWV-44" value="&lt;div style=&quot;direction: ltr;&quot;&gt;&lt;span style=&quot;background-color: initial;&quot;&gt;Карточка перехода&lt;/span&gt;&lt;/div&gt;" style="html=1;points=[];perimeter=orthogonalPerimeter;rounded=0;shadow=0;comic=0;labelBackgroundColor=none;strokeWidth=1;fontFamily=Verdana;fontSize=12;align=center;direction=west;rotation=-90;" parent="f27edlvPX0rT_J85qjWV-43" vertex="1">
          <mxGeometry x="-118.12" y="1505.54" width="338.3" height="25" as="geometry" />
        </mxCell>
        <mxCell id="f27edlvPX0rT_J85qjWV-45" value="&lt;div style=&quot;direction: ltr;&quot;&gt;&lt;span style=&quot;background-color: initial;&quot;&gt;Договор на переход&lt;/span&gt;&lt;/div&gt;" style="html=1;points=[];perimeter=orthogonalPerimeter;rounded=0;shadow=0;comic=0;labelBackgroundColor=none;strokeWidth=1;fontFamily=Verdana;fontSize=12;align=center;direction=west;rotation=-90;" parent="f27edlvPX0rT_J85qjWV-43" vertex="1">
          <mxGeometry x="6.88" y="1464.13" width="128.5" height="22.5" as="geometry" />
        </mxCell>
        <mxCell id="f27edlvPX0rT_J85qjWV-47" value="&lt;div style=&quot;direction: ltr;&quot;&gt;&lt;span style=&quot;background-color: initial;&quot;&gt;Копии&amp;nbsp;&lt;/span&gt;&lt;span style=&quot;background-color: initial;&quot;&gt;документов&lt;/span&gt;&lt;/div&gt;" style="html=1;points=[];perimeter=orthogonalPerimeter;rounded=0;shadow=0;comic=0;labelBackgroundColor=none;strokeWidth=1;fontFamily=Verdana;fontSize=12;align=center;direction=west;rotation=-90;" parent="f27edlvPX0rT_J85qjWV-43" vertex="1">
          <mxGeometry x="10.93" y="1607.51" width="121.63" height="25.49" as="geometry" />
        </mxCell>
        <mxCell id="tbXqZCxcv9YD3rP0Q4Ke-14" value="&lt;div style=&quot;direction: ltr;&quot;&gt;&lt;span style=&quot;background-color: initial;&quot;&gt;Тип&lt;/span&gt;&lt;/div&gt;" style="html=1;points=[];perimeter=orthogonalPerimeter;rounded=0;shadow=0;comic=0;labelBackgroundColor=none;strokeWidth=1;fontFamily=Verdana;fontSize=12;align=center;direction=west;rotation=-90;" parent="f27edlvPX0rT_J85qjWV-43" vertex="1">
          <mxGeometry x="54.059999999999995" y="1368" width="35.38" height="22.5" as="geometry" />
        </mxCell>
        <mxCell id="f27edlvPX0rT_J85qjWV-48" value="" style="html=1;verticalAlign=bottom;endArrow=block;labelBackgroundColor=none;fontFamily=Verdana;fontSize=12;elbow=vertical;edgeStyle=orthogonalEdgeStyle;curved=1;" parent="f27edlvPX0rT_J85qjWV-43" edge="1">
          <mxGeometry relative="1" as="geometry">
            <mxPoint x="64.63" y="1351" as="sourcePoint" />
            <mxPoint x="82.63" y="1389" as="targetPoint" />
            <Array as="points">
              <mxPoint x="104.63" y="1351" />
              <mxPoint x="104.63" y="1389" />
            </Array>
          </mxGeometry>
        </mxCell>
        <mxCell id="f27edlvPX0rT_J85qjWV-49" value="" style="html=1;verticalAlign=bottom;endArrow=block;labelBackgroundColor=none;fontFamily=Verdana;fontSize=12;elbow=vertical;edgeStyle=orthogonalEdgeStyle;curved=1;" parent="1" edge="1">
          <mxGeometry relative="1" as="geometry">
            <mxPoint x="552.63" y="1658" as="sourcePoint" />
            <mxPoint x="570.63" y="1696" as="targetPoint" />
            <Array as="points">
              <mxPoint x="592.63" y="1658" />
              <mxPoint x="592.63" y="1696" />
            </Array>
          </mxGeometry>
        </mxCell>
        <mxCell id="f27edlvPX0rT_J85qjWV-50" value="" style="shape=umlLifeline;perimeter=lifelinePerimeter;whiteSpace=wrap;html=1;container=1;dropTarget=0;collapsible=0;recursiveResize=0;outlineConnect=0;portConstraint=eastwest;newEdgeStyle={&quot;curved&quot;:0,&quot;rounded&quot;:0};participant=umlActor;" parent="1" vertex="1">
          <mxGeometry x="59" y="1190" width="20" height="807" as="geometry" />
        </mxCell>
        <mxCell id="f27edlvPX0rT_J85qjWV-51" value="" style="endArrow=classic;html=1;rounded=0;" parent="1" edge="1">
          <mxGeometry width="50" height="50" relative="1" as="geometry">
            <mxPoint x="71.78" y="1458.03" as="sourcePoint" />
            <mxPoint x="530" y="1458" as="targetPoint" />
            <Array as="points">
              <mxPoint x="157.84999999999994" y="1458.03" />
            </Array>
          </mxGeometry>
        </mxCell>
        <mxCell id="f27edlvPX0rT_J85qjWV-52" value="Оформление перехода" style="edgeLabel;html=1;align=center;verticalAlign=middle;resizable=0;points=[];" parent="f27edlvPX0rT_J85qjWV-51" vertex="1" connectable="0">
          <mxGeometry x="-0.5719" y="1" relative="1" as="geometry">
            <mxPoint x="39" as="offset" />
          </mxGeometry>
        </mxCell>
        <mxCell id="f27edlvPX0rT_J85qjWV-80" value="" style="endArrow=classic;html=1;rounded=0;entryX=0.98;entryY=0.949;entryDx=0;entryDy=0;entryPerimeter=0;" parent="1" edge="1">
          <mxGeometry width="50" height="50" relative="1" as="geometry">
            <mxPoint x="271.45000000000005" y="1989.9999999999998" as="sourcePoint" />
            <mxPoint x="657.0050000000001" y="1988.95559" as="targetPoint" />
          </mxGeometry>
        </mxCell>
        <mxCell id="f27edlvPX0rT_J85qjWV-81" value="Назначение в команду" style="edgeLabel;html=1;align=center;verticalAlign=middle;resizable=0;points=[];" parent="f27edlvPX0rT_J85qjWV-80" vertex="1" connectable="0">
          <mxGeometry x="-0.1771" y="2" relative="1" as="geometry">
            <mxPoint x="120" y="572" as="offset" />
          </mxGeometry>
        </mxCell>
        <mxCell id="tbXqZCxcv9YD3rP0Q4Ke-25" value="Приказ о назначении" style="edgeLabel;html=1;align=center;verticalAlign=middle;resizable=0;points=[];" parent="f27edlvPX0rT_J85qjWV-80" vertex="1" connectable="0">
          <mxGeometry x="-0.0219" y="-1" relative="1" as="geometry">
            <mxPoint as="offset" />
          </mxGeometry>
        </mxCell>
        <mxCell id="f27edlvPX0rT_J85qjWV-82" value="&lt;div style=&quot;direction: ltr;&quot;&gt;&lt;span style=&quot;background-color: initial;&quot;&gt;Документы&lt;/span&gt;&lt;/div&gt;" style="html=1;points=[];perimeter=orthogonalPerimeter;rounded=0;shadow=0;comic=0;labelBackgroundColor=none;strokeWidth=1;fontFamily=Verdana;fontSize=12;align=center;direction=west;rotation=-90;" parent="1" vertex="1">
          <mxGeometry x="239.09000000000003" y="2019" width="80.2" height="22.5" as="geometry" />
        </mxCell>
        <mxCell id="f27edlvPX0rT_J85qjWV-83" value="" style="endArrow=classic;html=1;rounded=0;" parent="1" edge="1">
          <mxGeometry width="50" height="50" relative="1" as="geometry">
            <mxPoint x="69.75" y="1842.9983000000002" as="sourcePoint" />
            <mxPoint x="660" y="1843" as="targetPoint" />
          </mxGeometry>
        </mxCell>
        <mxCell id="f27edlvPX0rT_J85qjWV-84" value="Тренер" style="edgeLabel;html=1;align=center;verticalAlign=middle;resizable=0;points=[];" parent="f27edlvPX0rT_J85qjWV-83" vertex="1" connectable="0">
          <mxGeometry x="-0.4975" y="1" relative="1" as="geometry">
            <mxPoint x="-149" y="-1361" as="offset" />
          </mxGeometry>
        </mxCell>
        <mxCell id="tbXqZCxcv9YD3rP0Q4Ke-26" value="Созание, удаление, редактирование" style="edgeLabel;html=1;align=center;verticalAlign=middle;resizable=0;points=[];" parent="f27edlvPX0rT_J85qjWV-83" vertex="1" connectable="0">
          <mxGeometry x="-0.5349" y="1" relative="1" as="geometry">
            <mxPoint as="offset" />
          </mxGeometry>
        </mxCell>
        <mxCell id="f27edlvPX0rT_J85qjWV-87" value="" style="endArrow=classic;html=1;rounded=0;exitX=0.242;exitY=-0.2;exitDx=0;exitDy=0;exitPerimeter=0;" parent="1" edge="1">
          <mxGeometry width="50" height="50" relative="1" as="geometry">
            <mxPoint x="428.0000000000002" y="720.99696" as="sourcePoint" />
            <mxPoint x="656.5149999999999" y="720.99696" as="targetPoint" />
          </mxGeometry>
        </mxCell>
        <mxCell id="f27edlvPX0rT_J85qjWV-88" value="Договор на обучение" style="edgeLabel;html=1;align=center;verticalAlign=middle;resizable=0;points=[];" parent="f27edlvPX0rT_J85qjWV-87" vertex="1" connectable="0">
          <mxGeometry x="-0.0922" y="-2" relative="1" as="geometry">
            <mxPoint y="-2" as="offset" />
          </mxGeometry>
        </mxCell>
        <mxCell id="f27edlvPX0rT_J85qjWV-91" value="" style="html=1;verticalAlign=bottom;endArrow=block;curved=0;rounded=0;exitX=0.602;exitY=0.064;exitDx=0;exitDy=0;exitPerimeter=0;entryX=0.973;entryY=0.005;entryDx=0;entryDy=0;entryPerimeter=0;" parent="1" source="f27edlvPX0rT_J85qjWV-29" target="f27edlvPX0rT_J85qjWV-25" edge="1">
          <mxGeometry width="80" relative="1" as="geometry">
            <mxPoint x="739" y="727" as="sourcePoint" />
            <mxPoint x="1336.0049999999997" y="596.0304000000003" as="targetPoint" />
          </mxGeometry>
        </mxCell>
        <mxCell id="f27edlvPX0rT_J85qjWV-92" value="Выбор типа документа" style="edgeLabel;html=1;align=center;verticalAlign=middle;resizable=0;points=[];" parent="f27edlvPX0rT_J85qjWV-91" vertex="1" connectable="0">
          <mxGeometry x="-0.2784" y="-2" relative="1" as="geometry">
            <mxPoint x="158" as="offset" />
          </mxGeometry>
        </mxCell>
        <mxCell id="f27edlvPX0rT_J85qjWV-94" value="" style="html=1;verticalAlign=bottom;endArrow=open;dashed=1;endSize=8;curved=0;rounded=0;entryX=0.851;entryY=-0.069;entryDx=0;entryDy=0;entryPerimeter=0;exitX=0.761;exitY=0.15;exitDx=0;exitDy=0;exitPerimeter=0;" parent="1" edge="1">
          <mxGeometry relative="1" as="geometry">
            <mxPoint x="1341.895" y="403.94281" as="sourcePoint" />
            <mxPoint x="312.0024999999998" y="402.00019999999995" as="targetPoint" />
          </mxGeometry>
        </mxCell>
        <mxCell id="f27edlvPX0rT_J85qjWV-95" value="" style="html=1;verticalAlign=bottom;endArrow=open;dashed=1;endSize=8;curved=0;rounded=0;exitX=0.243;exitY=0;exitDx=0;exitDy=0;exitPerimeter=0;entryX=0.258;entryY=-0.025;entryDx=0;entryDy=0;entryPerimeter=0;" parent="1" source="f27edlvPX0rT_J85qjWV-24" edge="1" target="f27edlvPX0rT_J85qjWV-28">
          <mxGeometry relative="1" as="geometry">
            <mxPoint x="819" y="757" as="sourcePoint" />
            <mxPoint x="289" y="537" as="targetPoint" />
          </mxGeometry>
        </mxCell>
        <mxCell id="f27edlvPX0rT_J85qjWV-96" value="" style="html=1;verticalAlign=bottom;endArrow=block;curved=0;rounded=0;exitX=0.783;exitY=-0.131;exitDx=0;exitDy=0;exitPerimeter=0;entryX=0.171;entryY=-0.186;entryDx=0;entryDy=0;entryPerimeter=0;" parent="1" source="tbXqZCxcv9YD3rP0Q4Ke-6" edge="1">
          <mxGeometry width="80" relative="1" as="geometry">
            <mxPoint x="286" y="965" as="sourcePoint" />
            <mxPoint x="1335.1749999999997" y="1377.72841" as="targetPoint" />
          </mxGeometry>
        </mxCell>
        <mxCell id="f27edlvPX0rT_J85qjWV-97" value="Выбор типа документа" style="edgeLabel;html=1;align=center;verticalAlign=middle;resizable=0;points=[];" parent="f27edlvPX0rT_J85qjWV-96" vertex="1" connectable="0">
          <mxGeometry x="0.1138" y="-2" relative="1" as="geometry">
            <mxPoint y="-2" as="offset" />
          </mxGeometry>
        </mxCell>
        <mxCell id="f27edlvPX0rT_J85qjWV-98" value="" style="html=1;verticalAlign=bottom;endArrow=open;dashed=1;endSize=8;curved=0;rounded=0;exitX=0.147;exitY=-0.045;exitDx=0;exitDy=0;exitPerimeter=0;" parent="1" edge="1">
          <mxGeometry relative="1" as="geometry">
            <mxPoint x="1337.995" y="1393.16287" as="sourcePoint" />
            <mxPoint x="440" y="1392" as="targetPoint" />
          </mxGeometry>
        </mxCell>
        <mxCell id="f27edlvPX0rT_J85qjWV-132" value="" style="html=1;verticalAlign=bottom;endArrow=open;dashed=1;endSize=8;curved=0;rounded=0;" parent="1" source="f27edlvPX0rT_J85qjWV-17" edge="1">
          <mxGeometry relative="1" as="geometry">
            <mxPoint x="790" y="2860" as="sourcePoint" />
            <mxPoint x="420" y="2850" as="targetPoint" />
          </mxGeometry>
        </mxCell>
        <mxCell id="f27edlvPX0rT_J85qjWV-140" value="Методист" style="text;html=1;strokeColor=none;fillColor=none;align=center;verticalAlign=middle;whiteSpace=wrap;rounded=0;" parent="1" vertex="1">
          <mxGeometry x="39" y="1160" width="60" height="30" as="geometry" />
        </mxCell>
        <mxCell id="f27edlvPX0rT_J85qjWV-141" value="Последовательность&amp;nbsp; действий пользователей в приложении &quot;Паспорт хоккеиста&quot;" style="text;html=1;strokeColor=none;fillColor=none;align=center;verticalAlign=middle;whiteSpace=wrap;rounded=0;" parent="1" vertex="1">
          <mxGeometry x="250" y="10" width="520" height="30" as="geometry" />
        </mxCell>
        <mxCell id="f27edlvPX0rT_J85qjWV-144" value="Спортсмены" style="shape=umlLifeline;perimeter=lifelinePerimeter;whiteSpace=wrap;html=1;container=0;collapsible=0;recursiveResize=0;outlineConnect=0;rounded=1;shadow=0;comic=0;labelBackgroundColor=none;strokeWidth=1;fontFamily=Verdana;fontSize=12;align=center;" parent="1" vertex="1">
          <mxGeometry x="340" y="109" width="106.37" height="2860" as="geometry" />
        </mxCell>
        <mxCell id="tbXqZCxcv9YD3rP0Q4Ke-1" value="&lt;div style=&quot;direction: ltr;&quot;&gt;Спортсмен&lt;/div&gt;" style="html=1;points=[];perimeter=orthogonalPerimeter;rounded=0;shadow=0;comic=0;labelBackgroundColor=none;strokeWidth=1;fontFamily=Verdana;fontSize=12;align=center;direction=west;rotation=-90;" parent="1" vertex="1">
          <mxGeometry x="253.01" y="834.9899999999998" width="281.76" height="25" as="geometry" />
        </mxCell>
        <mxCell id="tbXqZCxcv9YD3rP0Q4Ke-2" value="&lt;div style=&quot;direction: ltr;&quot;&gt;&lt;span style=&quot;background-color: initial;&quot;&gt;Документы&lt;/span&gt;&lt;/div&gt;" style="html=1;points=[];perimeter=orthogonalPerimeter;rounded=0;shadow=0;comic=0;labelBackgroundColor=none;strokeWidth=1;fontFamily=Verdana;fontSize=12;align=center;direction=west;rotation=-90;" parent="1" vertex="1">
          <mxGeometry x="375.55999999999995" y="747.8800000000001" width="77.88" height="22.5" as="geometry" />
        </mxCell>
        <mxCell id="tbXqZCxcv9YD3rP0Q4Ke-3" value="&lt;div style=&quot;direction: ltr;&quot;&gt;&lt;span style=&quot;background-color: initial;&quot;&gt;Список спортсменов школы&lt;/span&gt;&lt;/div&gt;" style="html=1;points=[];perimeter=orthogonalPerimeter;rounded=0;shadow=0;comic=0;labelBackgroundColor=none;strokeWidth=1;fontFamily=Verdana;fontSize=12;align=center;direction=west;rotation=-90;" parent="1" vertex="1">
          <mxGeometry x="300.58000000000004" y="1329.4" width="185.21" height="25" as="geometry" />
        </mxCell>
        <mxCell id="tbXqZCxcv9YD3rP0Q4Ke-4" value="" style="html=1;verticalAlign=bottom;endArrow=block;labelBackgroundColor=none;fontFamily=Verdana;fontSize=12;elbow=vertical;edgeStyle=orthogonalEdgeStyle;curved=1;" parent="1" edge="1">
          <mxGeometry relative="1" as="geometry">
            <mxPoint x="406.81000000000006" y="1249" as="sourcePoint" />
            <mxPoint x="424.81000000000006" y="1287" as="targetPoint" />
            <Array as="points">
              <mxPoint x="446.81000000000006" y="1249" />
              <mxPoint x="446.81000000000006" y="1287" />
            </Array>
          </mxGeometry>
        </mxCell>
        <mxCell id="tbXqZCxcv9YD3rP0Q4Ke-5" value="&lt;div style=&quot;direction: ltr;&quot;&gt;&lt;span style=&quot;background-color: initial;&quot;&gt;Карточка спортсмена&lt;/span&gt;&lt;/div&gt;" style="html=1;points=[];perimeter=orthogonalPerimeter;rounded=0;shadow=0;comic=0;labelBackgroundColor=none;strokeWidth=1;fontFamily=Verdana;fontSize=12;align=center;direction=west;rotation=-90;" parent="1" vertex="1">
          <mxGeometry x="343.18000000000006" y="1334.25" width="141.25" height="22.5" as="geometry" />
        </mxCell>
        <mxCell id="tbXqZCxcv9YD3rP0Q4Ke-6" value="&lt;div style=&quot;direction: ltr;&quot;&gt;&lt;span style=&quot;background-color: initial;&quot;&gt;Документы&lt;/span&gt;&lt;/div&gt;" style="html=1;points=[];perimeter=orthogonalPerimeter;rounded=0;shadow=0;comic=0;labelBackgroundColor=none;strokeWidth=1;fontFamily=Verdana;fontSize=12;align=center;direction=west;rotation=-90;" parent="1" vertex="1">
          <mxGeometry x="383.81000000000006" y="1341.5" width="100" height="22.5" as="geometry" />
        </mxCell>
        <mxCell id="tbXqZCxcv9YD3rP0Q4Ke-7" value="" style="html=1;verticalAlign=bottom;endArrow=block;labelBackgroundColor=none;fontFamily=Verdana;fontSize=12;elbow=vertical;edgeStyle=orthogonalEdgeStyle;curved=1;" parent="1" edge="1">
          <mxGeometry relative="1" as="geometry">
            <mxPoint x="424.81000000000006" y="1294" as="sourcePoint" />
            <mxPoint x="442.81000000000006" y="1332" as="targetPoint" />
            <Array as="points">
              <mxPoint x="464.81000000000006" y="1294" />
              <mxPoint x="464.81000000000006" y="1332" />
            </Array>
          </mxGeometry>
        </mxCell>
        <mxCell id="tbXqZCxcv9YD3rP0Q4Ke-8" value="&lt;div style=&quot;direction: ltr;&quot;&gt;Спортсмен&lt;/div&gt;" style="html=1;points=[];perimeter=orthogonalPerimeter;rounded=0;shadow=0;comic=0;labelBackgroundColor=none;strokeWidth=1;fontFamily=Verdana;fontSize=12;align=center;direction=west;rotation=-90;" parent="1" vertex="1">
          <mxGeometry x="352.38000000000005" y="2808" width="81.6" height="25" as="geometry" />
        </mxCell>
        <mxCell id="tbXqZCxcv9YD3rP0Q4Ke-9" value="&lt;div style=&quot;direction: ltr;&quot;&gt;&lt;span style=&quot;background-color: initial;&quot;&gt;Матч&lt;/span&gt;&lt;/div&gt;" style="html=1;points=[];perimeter=orthogonalPerimeter;rounded=0;shadow=0;comic=0;labelBackgroundColor=none;strokeWidth=1;fontFamily=Verdana;fontSize=12;align=center;direction=west;rotation=-90;" parent="1" vertex="1">
          <mxGeometry x="389.78000000000003" y="2819.8" width="44.2" height="22.5" as="geometry" />
        </mxCell>
        <mxCell id="tbXqZCxcv9YD3rP0Q4Ke-10" value="&lt;div style=&quot;direction: ltr;&quot;&gt;Спортсмен&lt;/div&gt;" style="html=1;points=[];perimeter=orthogonalPerimeter;rounded=0;shadow=0;comic=0;labelBackgroundColor=none;strokeWidth=1;fontFamily=Verdana;fontSize=12;align=center;direction=west;rotation=-90;" parent="1" vertex="1">
          <mxGeometry x="336.64000000000004" y="2944.4" width="110.8" height="25" as="geometry" />
        </mxCell>
        <mxCell id="tbXqZCxcv9YD3rP0Q4Ke-11" value="&lt;div style=&quot;direction: ltr;&quot;&gt;&lt;span style=&quot;background-color: initial;&quot;&gt;Статистика&lt;/span&gt;&lt;/div&gt;" style="html=1;points=[];perimeter=orthogonalPerimeter;rounded=0;shadow=0;comic=0;labelBackgroundColor=none;strokeWidth=1;fontFamily=Verdana;fontSize=12;align=center;direction=west;rotation=-90;" parent="1" vertex="1">
          <mxGeometry x="368.04" y="2943" width="85.4" height="22.5" as="geometry" />
        </mxCell>
        <mxCell id="tbXqZCxcv9YD3rP0Q4Ke-16" value="" style="html=1;verticalAlign=bottom;endArrow=block;labelBackgroundColor=none;fontFamily=Verdana;fontSize=12;elbow=vertical;edgeStyle=orthogonalEdgeStyle;curved=1;" parent="1" edge="1">
          <mxGeometry relative="1" as="geometry">
            <mxPoint x="550.63" y="1515" as="sourcePoint" />
            <mxPoint x="568.63" y="1553" as="targetPoint" />
            <Array as="points">
              <mxPoint x="590.63" y="1515" />
              <mxPoint x="590.63" y="1553" />
            </Array>
          </mxGeometry>
        </mxCell>
        <mxCell id="tbXqZCxcv9YD3rP0Q4Ke-18" value="&lt;div style=&quot;direction: ltr;&quot;&gt;Спортсмен&lt;/div&gt;" style="html=1;points=[];perimeter=orthogonalPerimeter;rounded=0;shadow=0;comic=0;labelBackgroundColor=none;strokeWidth=1;fontFamily=Verdana;fontSize=12;align=center;direction=west;rotation=-90;" parent="1" vertex="1">
          <mxGeometry x="340" y="1728.12" width="107.77" height="25" as="geometry" />
        </mxCell>
        <mxCell id="tbXqZCxcv9YD3rP0Q4Ke-19" value="&lt;div style=&quot;direction: ltr;&quot;&gt;&lt;span style=&quot;background-color: initial;&quot;&gt;Переходы&lt;/span&gt;&lt;/div&gt;" style="html=1;points=[];perimeter=orthogonalPerimeter;rounded=0;shadow=0;comic=0;labelBackgroundColor=none;strokeWidth=1;fontFamily=Verdana;fontSize=12;align=center;direction=west;rotation=-90;" parent="1" vertex="1">
          <mxGeometry x="375.55999999999995" y="1727" width="77.88" height="22.5" as="geometry" />
        </mxCell>
        <mxCell id="tbXqZCxcv9YD3rP0Q4Ke-22" value="" style="html=1;verticalAlign=bottom;endArrow=block;curved=0;rounded=0;exitX=0.831;exitY=1.061;exitDx=0;exitDy=0;exitPerimeter=0;" parent="1" source="f27edlvPX0rT_J85qjWV-44" target="tbXqZCxcv9YD3rP0Q4Ke-19" edge="1">
          <mxGeometry width="80" relative="1" as="geometry">
            <mxPoint x="520" y="1740" as="sourcePoint" />
            <mxPoint x="470" y="1680" as="targetPoint" />
            <Array as="points">
              <mxPoint x="470" y="1740" />
            </Array>
          </mxGeometry>
        </mxCell>
        <mxCell id="f27edlvPX0rT_J85qjWV-117" value="" style="endArrow=classic;startArrow=classic;html=1;rounded=0;entryX=0.935;entryY=0.326;entryDx=0;entryDy=0;entryPerimeter=0;" parent="1" target="tbXqZCxcv9YD3rP0Q4Ke-28" edge="1">
          <mxGeometry width="50" height="50" relative="1" as="geometry">
            <mxPoint x="272" y="2080" as="sourcePoint" />
            <mxPoint x="630" y="2080" as="targetPoint" />
            <Array as="points">
              <mxPoint x="572" y="2080" />
            </Array>
          </mxGeometry>
        </mxCell>
        <mxCell id="f27edlvPX0rT_J85qjWV-7" value="" style="endArrow=classic;startArrow=classic;html=1;rounded=0;" parent="1" edge="1">
          <mxGeometry width="50" height="50" relative="1" as="geometry">
            <mxPoint x="410" y="808" as="sourcePoint" />
            <mxPoint x="640" y="808" as="targetPoint" />
          </mxGeometry>
        </mxCell>
        <mxCell id="f27edlvPX0rT_J85qjWV-15" value="" style="html=1;verticalAlign=bottom;endArrow=open;dashed=1;endSize=8;curved=0;rounded=0;" parent="1" edge="1">
          <mxGeometry relative="1" as="geometry">
            <mxPoint x="643.4999999999998" y="2119" as="sourcePoint" />
            <mxPoint x="289.9999999999999" y="2119" as="targetPoint" />
          </mxGeometry>
        </mxCell>
        <mxCell id="tbXqZCxcv9YD3rP0Q4Ke-32" value="&lt;div style=&quot;direction: ltr;&quot;&gt;&lt;span style=&quot;background-color: initial;&quot;&gt;Команда&lt;/span&gt;&lt;/div&gt;" style="html=1;points=[];perimeter=orthogonalPerimeter;rounded=0;shadow=0;comic=0;labelBackgroundColor=none;strokeWidth=1;fontFamily=Verdana;fontSize=12;align=center;direction=west;rotation=-90;" parent="1" vertex="1">
          <mxGeometry x="375.16" y="850" width="80.2" height="22.5" as="geometry" />
        </mxCell>
        <mxCell id="tbXqZCxcv9YD3rP0Q4Ke-33" value="" style="html=1;verticalAlign=bottom;endArrow=open;dashed=1;endSize=8;curved=0;rounded=0;" parent="1" edge="1">
          <mxGeometry relative="1" as="geometry">
            <mxPoint x="659.05" y="837" as="sourcePoint" />
            <mxPoint x="430" y="837" as="targetPoint" />
          </mxGeometry>
        </mxCell>
        <mxCell id="tbXqZCxcv9YD3rP0Q4Ke-36" value="&lt;div style=&quot;direction: ltr;&quot;&gt;&lt;span style=&quot;background-color: initial;&quot;&gt;Список спортсменов школы&lt;/span&gt;&lt;/div&gt;" style="html=1;points=[];perimeter=orthogonalPerimeter;rounded=0;shadow=0;comic=0;labelBackgroundColor=none;strokeWidth=1;fontFamily=Verdana;fontSize=12;align=center;direction=west;rotation=-90;" parent="1" vertex="1">
          <mxGeometry x="301.28000000000003" y="585.4000000000001" width="185.21" height="25" as="geometry" />
        </mxCell>
        <mxCell id="tbXqZCxcv9YD3rP0Q4Ke-37" value="" style="html=1;verticalAlign=bottom;endArrow=block;labelBackgroundColor=none;fontFamily=Verdana;fontSize=12;elbow=vertical;edgeStyle=orthogonalEdgeStyle;curved=1;" parent="1" edge="1">
          <mxGeometry relative="1" as="geometry">
            <mxPoint x="407.51000000000005" y="506" as="sourcePoint" />
            <mxPoint x="425.51000000000005" y="544" as="targetPoint" />
            <Array as="points">
              <mxPoint x="447.51000000000005" y="506" />
              <mxPoint x="447.51000000000005" y="544" />
            </Array>
          </mxGeometry>
        </mxCell>
        <mxCell id="tbXqZCxcv9YD3rP0Q4Ke-38" value="&lt;div style=&quot;direction: ltr;&quot;&gt;&lt;span style=&quot;background-color: initial;&quot;&gt;Карточка спортсмена&lt;/span&gt;&lt;/div&gt;" style="html=1;points=[];perimeter=orthogonalPerimeter;rounded=0;shadow=0;comic=0;labelBackgroundColor=none;strokeWidth=1;fontFamily=Verdana;fontSize=12;align=center;direction=west;rotation=-90;" parent="1" vertex="1">
          <mxGeometry x="343.88000000000005" y="590.25" width="141.25" height="22.5" as="geometry" />
        </mxCell>
        <mxCell id="tbXqZCxcv9YD3rP0Q4Ke-39" value="&lt;div style=&quot;direction: ltr;&quot;&gt;&lt;span style=&quot;background-color: initial;&quot;&gt;Документы&lt;/span&gt;&lt;/div&gt;" style="html=1;points=[];perimeter=orthogonalPerimeter;rounded=0;shadow=0;comic=0;labelBackgroundColor=none;strokeWidth=1;fontFamily=Verdana;fontSize=12;align=center;direction=west;rotation=-90;" parent="1" vertex="1">
          <mxGeometry x="384.51000000000005" y="597.5" width="100" height="22.5" as="geometry" />
        </mxCell>
        <mxCell id="tbXqZCxcv9YD3rP0Q4Ke-40" value="" style="html=1;verticalAlign=bottom;endArrow=block;labelBackgroundColor=none;fontFamily=Verdana;fontSize=12;elbow=vertical;edgeStyle=orthogonalEdgeStyle;curved=1;" parent="1" edge="1">
          <mxGeometry relative="1" as="geometry">
            <mxPoint x="425.51000000000005" y="550" as="sourcePoint" />
            <mxPoint x="443.51000000000005" y="588" as="targetPoint" />
            <Array as="points">
              <mxPoint x="465.51000000000005" y="550" />
              <mxPoint x="465.51000000000005" y="588" />
            </Array>
          </mxGeometry>
        </mxCell>
        <mxCell id="f27edlvPX0rT_J85qjWV-59" value="" style="endArrow=classic;html=1;rounded=0;exitX=0.5;exitY=0.5;exitDx=0;exitDy=0;exitPerimeter=0;" parent="1" edge="1">
          <mxGeometry width="50" height="50" relative="1" as="geometry">
            <mxPoint x="74" y="508" as="sourcePoint" />
            <mxPoint x="381.385" y="506.2950000000001" as="targetPoint" />
          </mxGeometry>
        </mxCell>
        <mxCell id="tbXqZCxcv9YD3rP0Q4Ke-34" value="Подбирает спортсменов, заносит в систему" style="edgeLabel;html=1;align=center;verticalAlign=middle;resizable=0;points=[];" parent="f27edlvPX0rT_J85qjWV-59" vertex="1" connectable="0">
          <mxGeometry x="-0.0277" y="-4" relative="1" as="geometry">
            <mxPoint x="-1" y="-4" as="offset" />
          </mxGeometry>
        </mxCell>
        <mxCell id="tbXqZCxcv9YD3rP0Q4Ke-41" value="" style="endArrow=classic;html=1;rounded=0;entryX=0.98;entryY=0.949;entryDx=0;entryDy=0;entryPerimeter=0;" parent="1" edge="1">
          <mxGeometry width="50" height="50" relative="1" as="geometry">
            <mxPoint x="68.5" y="1979.99559" as="sourcePoint" />
            <mxPoint x="245.55500000000012" y="1979.99559" as="targetPoint" />
          </mxGeometry>
        </mxCell>
        <mxCell id="tbXqZCxcv9YD3rP0Q4Ke-43" value="Назначает в команду" style="edgeLabel;html=1;align=center;verticalAlign=middle;resizable=0;points=[];" parent="tbXqZCxcv9YD3rP0Q4Ke-41" vertex="1" connectable="0">
          <mxGeometry x="-0.0219" y="-1" relative="1" as="geometry">
            <mxPoint as="offset" />
          </mxGeometry>
        </mxCell>
        <mxCell id="tbXqZCxcv9YD3rP0Q4Ke-45" value="Тренер" style="html=1;points=[];perimeter=orthogonalPerimeter;rounded=0;shadow=0;comic=0;labelBackgroundColor=none;strokeWidth=1;fontFamily=Verdana;fontSize=12;align=center;direction=north;rotation=-90;" parent="1" vertex="1">
          <mxGeometry x="340" y="927" width="80" height="25" as="geometry" />
        </mxCell>
        <mxCell id="tbXqZCxcv9YD3rP0Q4Ke-47" value="" style="endArrow=classic;startArrow=classic;html=1;rounded=0;entryX=0.647;entryY=1.016;entryDx=0;entryDy=0;entryPerimeter=0;" parent="1" target="tbXqZCxcv9YD3rP0Q4Ke-1" edge="1">
          <mxGeometry width="50" height="50" relative="1" as="geometry">
            <mxPoint x="290" y="888" as="sourcePoint" />
            <mxPoint x="392.68499999999995" y="888" as="targetPoint" />
          </mxGeometry>
        </mxCell>
        <mxCell id="tbXqZCxcv9YD3rP0Q4Ke-49" value="" style="shape=umlLifeline;perimeter=lifelinePerimeter;whiteSpace=wrap;html=1;container=1;dropTarget=0;collapsible=0;recursiveResize=0;outlineConnect=0;portConstraint=eastwest;newEdgeStyle={&quot;curved&quot;:0,&quot;rounded&quot;:0};participant=umlActor;" parent="1" vertex="1">
          <mxGeometry x="59" y="490" width="21" height="520" as="geometry" />
        </mxCell>
        <mxCell id="tbXqZCxcv9YD3rP0Q4Ke-54" value="" style="html=1;verticalAlign=bottom;endArrow=block;curved=0;rounded=0;" parent="1" edge="1" source="f27edlvPX0rT_J85qjWV-21">
          <mxGeometry width="80" relative="1" as="geometry">
            <mxPoint x="781.9549999999999" y="2979.25" as="sourcePoint" />
            <mxPoint x="420" y="2979" as="targetPoint" />
          </mxGeometry>
        </mxCell>
        <mxCell id="tbXqZCxcv9YD3rP0Q4Ke-56" value="Тесты" style="shape=umlLifeline;perimeter=lifelinePerimeter;whiteSpace=wrap;html=1;container=1;collapsible=0;recursiveResize=0;outlineConnect=0;rounded=1;shadow=0;comic=0;labelBackgroundColor=none;strokeWidth=1;fontFamily=Verdana;fontSize=12;align=center;" parent="1" vertex="1">
          <mxGeometry x="730" y="109" width="103.94" height="2140" as="geometry" />
        </mxCell>
        <mxCell id="tbXqZCxcv9YD3rP0Q4Ke-58" value="ТКП" style="html=1;points=[];perimeter=orthogonalPerimeter;rounded=0;shadow=0;comic=0;labelBackgroundColor=none;strokeWidth=1;fontFamily=Verdana;fontSize=12;align=center;rotation=-90;" parent="tbXqZCxcv9YD3rP0Q4Ke-56" vertex="1">
          <mxGeometry x="3.53" y="937.5799999999999" width="98.94" height="20" as="geometry" />
        </mxCell>
        <mxCell id="tbXqZCxcv9YD3rP0Q4Ke-59" value="Медосмотры" style="shape=umlLifeline;perimeter=lifelinePerimeter;whiteSpace=wrap;html=1;container=1;collapsible=0;recursiveResize=0;outlineConnect=0;rounded=1;shadow=0;comic=0;labelBackgroundColor=none;strokeWidth=1;fontFamily=Verdana;fontSize=12;align=center;" parent="1" vertex="1">
          <mxGeometry x="864" y="109" width="106.96" height="2320" as="geometry" />
        </mxCell>
        <mxCell id="tbXqZCxcv9YD3rP0Q4Ke-60" value="Медосмотр" style="html=1;points=[];perimeter=orthogonalPerimeter;rounded=0;shadow=0;comic=0;labelBackgroundColor=none;strokeWidth=1;fontFamily=Verdana;fontSize=12;align=center;rotation=-90;" parent="tbXqZCxcv9YD3rP0Q4Ke-59" vertex="1">
          <mxGeometry x="-6.94" y="3158.97" width="113.9" height="20" as="geometry" />
        </mxCell>
        <mxCell id="f27edlvPX0rT_J85qjWV-13" value="" style="html=1;verticalAlign=bottom;endArrow=block;curved=0;rounded=0;" parent="1" target="tbXqZCxcv9YD3rP0Q4Ke-58" edge="1">
          <mxGeometry width="80" relative="1" as="geometry">
            <mxPoint x="69" y="1007.1099999999999" as="sourcePoint" />
            <mxPoint x="192.14500000000007" y="3061" as="targetPoint" />
          </mxGeometry>
        </mxCell>
        <mxCell id="tbXqZCxcv9YD3rP0Q4Ke-63" value="Создает тесты, проводит тестированиеt" style="edgeLabel;html=1;align=center;verticalAlign=middle;resizable=0;points=[];" parent="f27edlvPX0rT_J85qjWV-13" vertex="1" connectable="0">
          <mxGeometry x="-0.7344" relative="1" as="geometry">
            <mxPoint x="32" as="offset" />
          </mxGeometry>
        </mxCell>
        <mxCell id="tbXqZCxcv9YD3rP0Q4Ke-61" value="&lt;div style=&quot;direction: ltr;&quot;&gt;Спортсмен&lt;/div&gt;" style="html=1;points=[];perimeter=orthogonalPerimeter;rounded=0;shadow=0;comic=0;labelBackgroundColor=none;strokeWidth=1;fontFamily=Verdana;fontSize=12;align=center;direction=west;rotation=-90;" parent="1" vertex="1">
          <mxGeometry x="324.28" y="1087.6799999999998" width="139.36" height="25" as="geometry" />
        </mxCell>
        <mxCell id="tbXqZCxcv9YD3rP0Q4Ke-62" value="&lt;div style=&quot;direction: ltr;&quot;&gt;&lt;span style=&quot;background-color: initial;&quot;&gt;Результаты тестов&lt;/span&gt;&lt;/div&gt;" style="html=1;points=[];perimeter=orthogonalPerimeter;rounded=0;shadow=0;comic=0;labelBackgroundColor=none;strokeWidth=1;fontFamily=Verdana;fontSize=12;align=center;direction=west;rotation=-90;" parent="1" vertex="1">
          <mxGeometry x="348.06" y="1087.68" width="125.36" height="22.5" as="geometry" />
        </mxCell>
        <mxCell id="tbXqZCxcv9YD3rP0Q4Ke-64" value="" style="html=1;verticalAlign=bottom;endArrow=block;curved=0;rounded=0;exitX=0.062;exitY=-0.009;exitDx=0;exitDy=0;exitPerimeter=0;" parent="1" source="tbXqZCxcv9YD3rP0Q4Ke-58" target="tbXqZCxcv9YD3rP0Q4Ke-62" edge="1">
          <mxGeometry width="80" relative="1" as="geometry">
            <mxPoint x="941.9549999999999" y="1002.8899999999999" as="sourcePoint" />
            <mxPoint x="430" y="1003" as="targetPoint" />
          </mxGeometry>
        </mxCell>
        <mxCell id="f27edlvPX0rT_J85qjWV-133" value="" style="html=1;verticalAlign=bottom;endArrow=open;dashed=1;endSize=8;curved=0;rounded=0;entryX=0.939;entryY=-0.034;entryDx=0;entryDy=0;entryPerimeter=0;" parent="1" source="f27edlvPX0rT_J85qjWV-17" edge="1" target="f27edlvPX0rT_J85qjWV-38">
          <mxGeometry relative="1" as="geometry">
            <mxPoint x="825" y="2880" as="sourcePoint" />
            <mxPoint x="324" y="2880" as="targetPoint" />
          </mxGeometry>
        </mxCell>
        <mxCell id="LgTRukzydeiG_BwK3OPo-1" value="Документы" style="shape=umlLifeline;perimeter=lifelinePerimeter;whiteSpace=wrap;html=1;container=1;collapsible=0;recursiveResize=0;outlineConnect=0;rounded=1;shadow=0;comic=0;labelBackgroundColor=none;strokeWidth=1;fontFamily=Verdana;fontSize=12;align=center;" vertex="1" parent="1">
          <mxGeometry x="1140" y="109" width="106.96" height="2320" as="geometry" />
        </mxCell>
        <mxCell id="LgTRukzydeiG_BwK3OPo-2" value="Медосмотр" style="html=1;points=[];perimeter=orthogonalPerimeter;rounded=0;shadow=0;comic=0;labelBackgroundColor=none;strokeWidth=1;fontFamily=Verdana;fontSize=12;align=center;rotation=-90;" vertex="1" parent="LgTRukzydeiG_BwK3OPo-1">
          <mxGeometry x="-6.94" y="3158.97" width="113.9" height="20" as="geometry" />
        </mxCell>
        <mxCell id="LgTRukzydeiG_BwK3OPo-7" value="Приказы" style="html=1;points=[];perimeter=orthogonalPerimeter;rounded=0;shadow=0;comic=0;labelBackgroundColor=none;strokeWidth=1;fontFamily=Verdana;fontSize=12;align=center;rotation=-90;" vertex="1" parent="LgTRukzydeiG_BwK3OPo-1">
          <mxGeometry x="15.759999999999998" y="134" width="73.74" height="20" as="geometry" />
        </mxCell>
        <mxCell id="LgTRukzydeiG_BwK3OPo-10" value="Договора" style="html=1;points=[];perimeter=orthogonalPerimeter;rounded=0;shadow=0;comic=0;labelBackgroundColor=none;strokeWidth=1;fontFamily=Verdana;fontSize=12;align=center;rotation=-90;" vertex="1" parent="LgTRukzydeiG_BwK3OPo-1">
          <mxGeometry x="21.78" y="325.17" width="63.39" height="20" as="geometry" />
        </mxCell>
        <mxCell id="f27edlvPX0rT_J85qjWV-2" value="Команды" style="shape=umlLifeline;perimeter=lifelinePerimeter;whiteSpace=wrap;html=1;container=1;collapsible=0;recursiveResize=0;outlineConnect=0;rounded=1;shadow=0;comic=0;labelBackgroundColor=none;strokeWidth=1;fontFamily=Verdana;fontSize=12;align=center;" parent="1" vertex="1">
          <mxGeometry x="604" y="109" width="97" height="2469.32" as="geometry" />
        </mxCell>
        <mxCell id="f27edlvPX0rT_J85qjWV-3" value="Команда" style="html=1;points=[];perimeter=orthogonalPerimeter;rounded=0;shadow=0;comic=0;labelBackgroundColor=none;strokeWidth=1;fontFamily=Verdana;fontSize=12;align=center;direction=north;rotation=-90;" parent="f27edlvPX0rT_J85qjWV-2" vertex="1">
          <mxGeometry x="-236.09" y="1833.38" width="576.18" height="25" as="geometry" />
        </mxCell>
        <mxCell id="f27edlvPX0rT_J85qjWV-4" value="Список команд" style="html=1;points=[];perimeter=orthogonalPerimeter;rounded=0;shadow=0;comic=0;labelBackgroundColor=none;strokeWidth=1;fontFamily=Verdana;fontSize=12;align=center;direction=north;rotation=-90;" parent="f27edlvPX0rT_J85qjWV-2" vertex="1">
          <mxGeometry x="-5.52" y="1459.6399999999999" width="115.07" height="25" as="geometry" />
        </mxCell>
        <mxCell id="f27edlvPX0rT_J85qjWV-11" value="Команда" style="html=1;points=[];perimeter=orthogonalPerimeter;rounded=0;shadow=0;comic=0;labelBackgroundColor=none;strokeWidth=1;fontFamily=Verdana;fontSize=12;align=center;direction=north;rotation=-90;" parent="f27edlvPX0rT_J85qjWV-2" vertex="1">
          <mxGeometry x="9.37" y="2347.12" width="83.25" height="25" as="geometry" />
        </mxCell>
        <mxCell id="f27edlvPX0rT_J85qjWV-12" value="&lt;div style=&quot;direction: ltr;&quot;&gt;&lt;span style=&quot;background-color: initial;&quot;&gt;Матч&lt;/span&gt;&lt;/div&gt;" style="html=1;points=[];perimeter=orthogonalPerimeter;rounded=0;shadow=0;comic=0;labelBackgroundColor=none;strokeWidth=1;fontFamily=Verdana;fontSize=12;align=center;direction=west;rotation=-90;" parent="f27edlvPX0rT_J85qjWV-2" vertex="1">
          <mxGeometry x="45.84" y="2347.59" width="49.55" height="22.5" as="geometry" />
        </mxCell>
        <mxCell id="tbXqZCxcv9YD3rP0Q4Ke-28" value="Тренер" style="html=1;points=[];perimeter=orthogonalPerimeter;rounded=0;shadow=0;comic=0;labelBackgroundColor=none;strokeWidth=1;fontFamily=Verdana;fontSize=12;align=center;direction=north;rotation=-90;" parent="f27edlvPX0rT_J85qjWV-2" vertex="1">
          <mxGeometry x="-4.48" y="1946" width="71.04" height="25" as="geometry" />
        </mxCell>
        <mxCell id="tbXqZCxcv9YD3rP0Q4Ke-29" value="Спортсмен" style="html=1;points=[];perimeter=orthogonalPerimeter;rounded=0;shadow=0;comic=0;labelBackgroundColor=none;strokeWidth=1;fontFamily=Verdana;fontSize=12;align=center;direction=north;rotation=-90;" parent="f27edlvPX0rT_J85qjWV-2" vertex="1">
          <mxGeometry x="-4.48" y="2045.52" width="80" height="25" as="geometry" />
        </mxCell>
        <mxCell id="f27edlvPX0rT_J85qjWV-131" value="" style="html=1;verticalAlign=bottom;endArrow=open;dashed=1;endSize=8;curved=0;rounded=0;entryX=0.712;entryY=-0.006;entryDx=0;entryDy=0;entryPerimeter=0;" parent="1" source="f27edlvPX0rT_J85qjWV-17" edge="1" target="f27edlvPX0rT_J85qjWV-12">
          <mxGeometry relative="1" as="geometry">
            <mxPoint x="1544" y="3037" as="sourcePoint" />
            <mxPoint x="947" y="2799" as="targetPoint" />
            <Array as="points" />
          </mxGeometry>
        </mxCell>
        <mxCell id="LgTRukzydeiG_BwK3OPo-4" value="" style="shape=umlLifeline;perimeter=lifelinePerimeter;whiteSpace=wrap;html=1;container=1;dropTarget=0;collapsible=0;recursiveResize=0;outlineConnect=0;portConstraint=eastwest;newEdgeStyle={&quot;curved&quot;:0,&quot;rounded&quot;:0};participant=umlActor;" vertex="1" parent="1">
          <mxGeometry x="59" y="168" width="20" height="302" as="geometry" />
        </mxCell>
        <mxCell id="LgTRukzydeiG_BwK3OPo-5" value="Администрация" style="text;html=1;strokeColor=none;fillColor=none;align=center;verticalAlign=middle;whiteSpace=wrap;rounded=0;" vertex="1" parent="1">
          <mxGeometry x="39" y="138" width="60" height="30" as="geometry" />
        </mxCell>
        <mxCell id="LgTRukzydeiG_BwK3OPo-8" value="" style="html=1;verticalAlign=bottom;endArrow=block;curved=0;rounded=0;exitX=0.5;exitY=1;exitDx=0;exitDy=0;" edge="1" parent="1">
          <mxGeometry width="80" relative="1" as="geometry">
            <mxPoint x="69" y="219" as="sourcePoint" />
            <mxPoint x="1180" y="219" as="targetPoint" />
          </mxGeometry>
        </mxCell>
        <mxCell id="LgTRukzydeiG_BwK3OPo-9" value="Издает приказы" style="edgeLabel;html=1;align=center;verticalAlign=middle;resizable=0;points=[];" vertex="1" connectable="0" parent="LgTRukzydeiG_BwK3OPo-8">
          <mxGeometry x="-0.0623" y="-3" relative="1" as="geometry">
            <mxPoint y="-2" as="offset" />
          </mxGeometry>
        </mxCell>
        <mxCell id="LgTRukzydeiG_BwK3OPo-11" value="" style="html=1;verticalAlign=bottom;endArrow=block;curved=0;rounded=0;entryX=0.147;entryY=0.076;entryDx=0;entryDy=0;entryPerimeter=0;" edge="1" parent="1" source="LgTRukzydeiG_BwK3OPo-4" target="LgTRukzydeiG_BwK3OPo-10">
          <mxGeometry x="-0.0121" y="3" width="80" relative="1" as="geometry">
            <mxPoint x="370" y="480" as="sourcePoint" />
            <mxPoint x="450" y="480" as="targetPoint" />
            <mxPoint x="-1" as="offset" />
          </mxGeometry>
        </mxCell>
        <mxCell id="LgTRukzydeiG_BwK3OPo-12" value="Заключает платные договоры" style="edgeLabel;html=1;align=center;verticalAlign=middle;resizable=0;points=[];" vertex="1" connectable="0" parent="LgTRukzydeiG_BwK3OPo-11">
          <mxGeometry x="-0.0945" y="-1" relative="1" as="geometry">
            <mxPoint as="offset" />
          </mxGeometry>
        </mxCell>
        <mxCell id="tbXqZCxcv9YD3rP0Q4Ke-48" value="" style="endArrow=classic;startArrow=classic;html=1;rounded=0;entryX=0.98;entryY=0.156;entryDx=0;entryDy=0;entryPerimeter=0;exitX=0.122;exitY=1.077;exitDx=0;exitDy=0;exitPerimeter=0;" parent="1" target="tbXqZCxcv9YD3rP0Q4Ke-45" edge="1" source="tbXqZCxcv9YD3rP0Q4Ke-23">
          <mxGeometry width="50" height="50" relative="1" as="geometry">
            <mxPoint x="276" y="969" as="sourcePoint" />
            <mxPoint x="368.70000000000005" y="-579.5799999999999" as="targetPoint" />
          </mxGeometry>
        </mxCell>
      </root>
    </mxGraphModel>
  </diagram>
</mxfile>
